<?xml version="1.0" encoding="utf-8"?>
<!-- Generator: Adobe Illustrator 28.1.0, SVG Export Plug-In . SVG Version: 6.00 Build 0)  -->
<svg version="1.1" id="Layer_1" xmlns="http://www.w3.org/2000/svg" xmlns:xlink="http://www.w3.org/1999/xlink" x="0px" y="0px"
	 viewBox="0 0 24 24" style="enable-background:new 0 0 24 24;" xml:space="preserve">
<style type="text/css">
	.st0{fill:#F6F5F5;}
</style>
<path class="st0" d="M4,19v-2h2v-7c0-1.4,0.4-2.6,1.2-3.7s1.9-1.8,3.2-2.1V3.5c0-0.4,0.1-0.8,0.4-1.1C11.2,2.1,11.6,2,12,2
	c0.4,0,0.8,0.1,1.1,0.4c0.3,0.3,0.4,0.6,0.4,1.1v0.7c1.3,0.3,2.4,1,3.2,2.1C17.6,7.4,18,8.6,18,10v7h2v2H4z M12,22
	c-0.6,0-1-0.2-1.4-0.6S10,20.5,10,20h4c0,0.5-0.2,1-0.6,1.4S12.6,22,12,22z M8,17h8v-7c0-1.1-0.4-2-1.2-2.8S13.1,6,12,6
	s-2,0.4-2.8,1.2S8,8.9,8,10V17z"/>
</svg>
