<?xml version="1.0" encoding="utf-8"?>
<!-- Generator: Adobe Illustrator 28.1.0, SVG Export Plug-In . SVG Version: 6.00 Build 0)  -->
<svg version="1.1" id="Layer_1" xmlns="http://www.w3.org/2000/svg" xmlns:xlink="http://www.w3.org/1999/xlink" x="0px" y="0px"
	 viewBox="0 0 24 24" style="enable-background:new 0 0 24 24;" xml:space="preserve">
<style type="text/css">
	.st0{fill:#F6F5F5;}
</style>
<path class="st0" d="M18,22c-0.8,0-1.5-0.3-2.1-0.9C15.3,20.5,15,19.8,15,19c0-0.1,0-0.2,0-0.4c0-0.1,0-0.2,0.1-0.3l-7.1-4.1
	c-0.3,0.2-0.6,0.4-1,0.6C6.8,14.9,6.4,15,6,15c-0.8,0-1.5-0.3-2.1-0.9C3.3,13.5,3,12.8,3,12s0.3-1.5,0.9-2.1S5.2,9,6,9
	c0.4,0,0.8,0.1,1.1,0.2c0.4,0.1,0.7,0.3,1,0.6l7.1-4.1c0-0.1-0.1-0.2-0.1-0.3c0-0.1,0-0.2,0-0.4c0-0.8,0.3-1.5,0.9-2.1
	C16.5,2.3,17.2,2,18,2c0.8,0,1.5,0.3,2.1,0.9C20.7,3.5,21,4.2,21,5s-0.3,1.5-0.9,2.1C19.5,7.7,18.8,8,18,8c-0.4,0-0.8-0.1-1.1-0.2
	c-0.3-0.1-0.7-0.3-0.9-0.6l-7,4.1c0,0.1,0.1,0.2,0.1,0.3s0,0.2,0,0.4c0,0.1,0,0.2,0,0.4s0,0.2-0.1,0.3l7,4.1
	c0.3-0.2,0.6-0.4,0.9-0.6c0.4-0.1,0.7-0.2,1.1-0.2c0.8,0,1.5,0.3,2.1,0.9c0.6,0.6,0.9,1.3,0.9,2.1s-0.3,1.5-0.9,2.1
	C19.5,21.7,18.8,22,18,22z M18,6c0.3,0,0.5-0.1,0.7-0.3C18.9,5.5,19,5.3,19,5s-0.1-0.5-0.3-0.7C18.5,4.1,18.3,4,18,4
	s-0.5,0.1-0.7,0.3C17.1,4.5,17,4.7,17,5s0.1,0.5,0.3,0.7S17.7,6,18,6z M6,13c0.3,0,0.5-0.1,0.7-0.3S7,12.3,7,12s-0.1-0.5-0.3-0.7
	S6.3,11,6,11s-0.5,0.1-0.7,0.3C5.1,11.5,5,11.7,5,12s0.1,0.5,0.3,0.7C5.5,12.9,5.7,13,6,13z M18,20c0.3,0,0.5-0.1,0.7-0.3
	c0.2-0.2,0.3-0.4,0.3-0.7s-0.1-0.5-0.3-0.7C18.5,18.1,18.3,18,18,18s-0.5,0.1-0.7,0.3C17.1,18.5,17,18.7,17,19s0.1,0.5,0.3,0.7
	C17.5,19.9,17.7,20,18,20z"/>
</svg>
